<svg xmlns="http://www.w3.org/2000/svg" width="16.547" height="16.547" viewBox="0 0 16.547 16.547"><defs><style>.a{fill:none;stroke:#f9b807;stroke-linecap:round;stroke-linejoin:round;stroke-width:1.5px;}</style></defs><g transform="translate(0.75 0.75)"><path class="a" d="M15,13.5h6.771a1.5,1.5,0,0,1,1.5,1.5v6.771a1.5,1.5,0,0,1-1.5,1.5H15a1.5,1.5,0,0,1-1.5-1.5V15A1.5,1.5,0,0,1,15,13.5Z" transform="translate(-8.233 -8.233)"/><path class="a" d="M5.257,12.781H4.5a1.5,1.5,0,0,1-1.5-1.5V4.5A1.5,1.5,0,0,1,4.5,3h6.771a1.5,1.5,0,0,1,1.5,1.5v.752" transform="translate(-3 -3)"/></g></svg>