<svg xmlns="http://www.w3.org/2000/svg" width="13.593" height="15.535" viewBox="0 0 13.593 15.535"><defs><style>.a{fill:#fff;}</style></defs><path class="a" d="M94.992,103.9a.865.865,0,1,0,.792.862A.828.828,0,0,0,94.992,103.9Zm2.835,0a.865.865,0,1,0,.792.862A.828.828,0,0,0,97.827,103.9Z" transform="translate(-89.602 -97.383)"/><path class="a" d="M47,20H36.592A1.6,1.6,0,0,0,35,21.6V32.1a1.6,1.6,0,0,0,1.592,1.6H45.4l-.412-1.437.994.924.94.87,1.67,1.476V21.6A1.6,1.6,0,0,0,47,20ZM44,30.144s-.28-.334-.513-.629a2.451,2.451,0,0,0,1.406-.924,4.445,4.445,0,0,1-.893.458,5.112,5.112,0,0,1-1.126.334,5.441,5.441,0,0,1-2.012-.008,6.521,6.521,0,0,1-1.142-.334,4.552,4.552,0,0,1-.567-.264c-.023-.016-.047-.023-.07-.039a.107.107,0,0,1-.031-.023c-.14-.078-.217-.132-.217-.132A2.416,2.416,0,0,0,40.2,29.5c-.233.3-.52.645-.52.645a2.816,2.816,0,0,1-2.369-1.181,10.4,10.4,0,0,1,1.119-4.529,3.841,3.841,0,0,1,2.183-.816l.078.093a5.24,5.24,0,0,0-2.043,1.018s.171-.093.458-.225a5.833,5.833,0,0,1,1.763-.489A.765.765,0,0,1,41,24a6.572,6.572,0,0,1,1.569-.016,6.332,6.332,0,0,1,2.338.746,5.169,5.169,0,0,0-1.934-.986l.109-.124a3.841,3.841,0,0,1,2.183.816,10.4,10.4,0,0,1,1.119,4.529A2.839,2.839,0,0,1,44,30.144Z" transform="translate(-35 -20)"/></svg>