<svg xmlns="http://www.w3.org/2000/svg" width="124.979" height="52.855" viewBox="0 0 124.979 52.855"><defs><style>.a{fill:#fff;}.b{fill:#fda800;}.c{fill:#e1302d;}.d{fill:#50b1b5;}</style></defs><g transform="translate(-79.212 -43.227)"><path class="a" d="M97.148,97.92a11.015,11.015,0,0,1,2.93,2.8l-2.93,2.328-1.111.909a6.364,6.364,0,0,0-2.249-2.021,6.334,6.334,0,0,0-5.482-.252,6.4,6.4,0,0,0-3.385,3.384,6.139,6.139,0,0,0-.505,2.475v15h-5.2V95.981h5.2V97.92A11.512,11.512,0,0,1,87.4,96.492a11.474,11.474,0,0,1,6.77,0A11.526,11.526,0,0,1,97.148,97.92Z" transform="translate(0 -34.911)"/><path class="a" d="M156.061,95.81v26.677h-5.2V95.81Z" transform="translate(-49.158 -34.798)"/><path class="a" d="M195.675,110.349a8.751,8.751,0,0,1,1.112,2.2,6.9,6.9,0,0,1,.353,2.5,7.307,7.307,0,0,1-.758,3.082,8.44,8.44,0,0,1-1.87,2.476,8.253,8.253,0,0,1-2.728,1.642,8.633,8.633,0,0,1-3.284.531,9.114,9.114,0,0,1-4.37-1.263,7.741,7.741,0,0,1-2.956-3.082l4.345-3.032a2.834,2.834,0,0,0,1.112,1.541,3.314,3.314,0,0,0,2.021.631,3.365,3.365,0,0,0,2.3-.733,2.393,2.393,0,0,0,.985-1.945,1.794,1.794,0,0,0-.051-.505v-.1a.4.4,0,0,1-.05-.177.417.417,0,0,0-.05-.177,2.946,2.946,0,0,0-1.314-1.414,2.025,2.025,0,0,0-.455-.2l.051-.05a17.24,17.24,0,0,0-1.566-.783q-.86-.378-1.743-.808t-1.743-.909a9.581,9.581,0,0,1-1.616-1.137v-.051l-.152-.151a7.471,7.471,0,0,1-1.667-2.349,6.316,6.316,0,0,1-.556-2.855,6.746,6.746,0,0,1,.708-2.829,7.44,7.44,0,0,1,1.743-2.274,8.218,8.218,0,0,1,2.552-1.516,8.078,8.078,0,0,1,3.133-.5,8.866,8.866,0,0,1,3.916,1.061,7.383,7.383,0,0,1,2.754,2.577l-4.244,2.93a2.576,2.576,0,0,0-.985-.96,2.967,2.967,0,0,0-1.541-.4,3.067,3.067,0,0,0-2,.556,1.774,1.774,0,0,0-.833,1.465.862.862,0,0,0,.05.354,1.773,1.773,0,0,0,.505.96,3.08,3.08,0,0,0,1.011.657q.959.557,2.2,1.136t2.5,1.289a7.84,7.84,0,0,1,1.819,1.162l.253.252A10.353,10.353,0,0,1,195.675,110.349Z" transform="translate(-70.081 -34.988)"/><path class="a" d="M248.823,95.81v26.677h-5.2V95.81Z" transform="translate(-112.804 -34.798)"/><path class="a" d="M300.321,74.4a13.123,13.123,0,0,1-1.036,5.2,13.316,13.316,0,0,1-7.1,7.1,13.592,13.592,0,0,1-10.408,0,13.315,13.315,0,0,1-7.1-7.1,13.593,13.593,0,0,1,0-10.408,13.316,13.316,0,0,1,7.1-7.1,13.121,13.121,0,0,1,5.2-1.036,12.888,12.888,0,0,1,4.37.733,13.865,13.865,0,0,1,3.764,2.046V43.227h5.2V74.4Zm-13.313,8.134a7.956,7.956,0,0,0,3.147-.631,8.122,8.122,0,0,0,4.962-7.5v-.05a7.846,7.846,0,0,0-.63-3.133,8.2,8.2,0,0,0-1.737-2.577,8.1,8.1,0,0,0-2.594-1.743,8.162,8.162,0,0,0-6.3,0,8.109,8.109,0,0,0-2.594,1.743,8.489,8.489,0,0,0-1.763,2.6,7.947,7.947,0,0,0,0,6.316,8.469,8.469,0,0,0,1.763,2.6A8.087,8.087,0,0,0,283.86,81.9,7.955,7.955,0,0,0,287.008,82.536Z" transform="translate(-134.35 0)"/><path class="a" d="M372.508,95.81v26.677h-5.2V95.81Z" transform="translate(-197.668 -34.798)"/><path class="a" d="M410.668,95.81a13.12,13.12,0,0,1,5.2,1.036,13.313,13.313,0,0,1,7.1,7.1,13.593,13.593,0,0,1,0,10.408,13.314,13.314,0,0,1-7.1,7.1,13.592,13.592,0,0,1-10.408,0,13.314,13.314,0,0,1-7.1-7.1,13.593,13.593,0,0,1,0-10.408,13.313,13.313,0,0,1,7.1-7.1A13.117,13.117,0,0,1,410.668,95.81Zm.025,21.473a7.956,7.956,0,0,0,3.148-.631,8.141,8.141,0,0,0,0-15.006,8.162,8.162,0,0,0-6.3,0,8.118,8.118,0,0,0-2.595,1.743,8.485,8.485,0,0,0-1.762,2.6,7.946,7.946,0,0,0,0,6.316,8.464,8.464,0,0,0,1.762,2.6,8.086,8.086,0,0,0,2.595,1.743A7.955,7.955,0,0,0,410.693,117.283Z" transform="translate(-219.815 -34.798)"/><circle class="b" cx="2.863" cy="2.863" r="2.863" transform="translate(101.45 52.555)"/><circle class="c" cx="2.863" cy="2.863" r="2.863" transform="translate(130.557 90.356)"/><circle class="d" cx="2.863" cy="2.863" r="2.863" transform="translate(169.338 52.516)"/></g></svg>