<svg xmlns="http://www.w3.org/2000/svg" width="78" height="78" viewBox="0 0 78 78"><defs><style>.a{fill:#fff;}.b{fill:#5fbdc1;}</style></defs><g transform="translate(-693 -5726)"><circle class="a" cx="39" cy="39" r="39" transform="translate(693 5726)"/><g transform="translate(715 5673.164)"><g transform="translate(5.002 85.539)"><path class="b" d="M99.308,160.783l-5.477-6.44,4.865-2.776a.991.991,0,1,0-.982-1.721L87.635,155.6l-10.079-5.75a.991.991,0,1,0-.982,1.721l4.865,2.776-5.477,6.44a.991.991,0,0,0,1.51,1.284l5.719-6.724,3.953,2.255a.991.991,0,0,0,.982,0l3.953-2.255,5.719,6.724a.991.991,0,1,0,1.51-1.284Z" transform="translate(-75.726 -149.716)"/></g><g transform="translate(0 81)"><path class="b" d="M30.85,81H2.973A2.976,2.976,0,0,0,0,83.973v17.176a2.976,2.976,0,0,0,2.973,2.973H30.85a2.976,2.976,0,0,0,2.973-2.973V83.973A2.976,2.976,0,0,0,30.85,81Zm.991,20.148a.992.992,0,0,1-.991.991H2.973a.992.992,0,0,1-.991-.991V83.973a.992.992,0,0,1,.991-.991H30.85a.992.992,0,0,1,.991.991Z" transform="translate(0 -81)"/></g></g></g></svg>