<svg xmlns="http://www.w3.org/2000/svg" width="78" height="78" viewBox="0 0 78 78"><defs><style>.a{fill:#fff;opacity:0.15;}.b{fill:#f9b807;}</style></defs><g transform="translate(-595 -5726)"><circle class="a" cx="39" cy="39" r="39" transform="translate(595 5726)"/><g transform="translate(574.203 5520.08)"><g transform="translate(42.797 232.237)"><path class="b" d="M77.272,252.528a10.712,10.712,0,0,1-2.591,2.409,14.021,14.021,0,0,1-5.8,2.6,19.2,19.2,0,0,1-2.138.2,1.1,1.1,0,0,1-.961-.523c-.777-1-1.569-1.99-2.344-2.993a.565.565,0,0,0-.586-.245,27.083,27.083,0,0,1-4.9.061,6.856,6.856,0,0,0-.869-.071.621.621,0,0,0-.4.226c-.794.988-1.584,1.979-2.352,2.987a1.368,1.368,0,0,1-1.246.565,13.552,13.552,0,0,1-7.75-2.87c-.771-.572-1.465-1.25-2.186-1.889a.981.981,0,0,1-.339-.876c.158-1.447.276-2.9.491-4.339a40.964,40.964,0,0,1,1.863-7.718,21.363,21.363,0,0,1,2.017-4.308,1.8,1.8,0,0,1,.531-.542,19.5,19.5,0,0,1,6.372-2.763,13.543,13.543,0,0,1,1.429-.195,1.03,1.03,0,0,1,1.1.6c.48.924.969,1.843,1.442,2.771a.433.433,0,0,0,.455.288c1.031-.018,2.063-.014,3.094,0a.388.388,0,0,0,.411-.248c.461-.909.948-1.8,1.4-2.714a1.153,1.153,0,0,1,1.247-.7,14.988,14.988,0,0,1,5.48,1.693c.76.379,1.492.819,2.22,1.259a1.7,1.7,0,0,1,.534.538,24.7,24.7,0,0,1,2.742,6.612,48.028,48.028,0,0,1,1.44,7.644c.058.532.131,1.062.2,1.592Zm-11.76,1.045c.56.708,1.082,1.377,1.619,2.034a.4.4,0,0,0,.3.073c.378-.04.758-.08,1.13-.156a13.562,13.562,0,0,0,6.3-3.351.812.812,0,0,0,.315-.811c-.339-2.132-.605-4.277-1.02-6.394a27.728,27.728,0,0,0-2.4-7.135,2.949,2.949,0,0,0-1.446-1.5c-.347-.153-.671-.359-1.011-.531a14.675,14.675,0,0,0-4-1.413c-.114-.021-.312-.008-.35.059-.315.55-.6,1.116-.9,1.689.073.02.1.032.136.037A21.913,21.913,0,0,1,70.1,237.88a1.023,1.023,0,0,1,.592,1.377,1.01,1.01,0,0,1-1.414.48,21.143,21.143,0,0,0-7.368-1.769,23.266,23.266,0,0,0-11.133,1.771,1.256,1.256,0,0,1-.679.085,1,1,0,0,1-.184-1.9c1.2-.447,2.409-.894,3.636-1.269.793-.243,1.624-.36,2.463-.539-.262-.505-.531-.995-.771-1.5a.373.373,0,0,0-.492-.24,14.807,14.807,0,0,0-4.146,1.512c-2.09,1.129-1.673.608-2.673,2.788A39.632,39.632,0,0,0,44.9,251.585a.67.67,0,0,0,.2.45,7.719,7.719,0,0,0,.755.668,13.069,13.069,0,0,0,6.083,2.9c.906.153.9.165,1.473-.56l.249-.317.9-1.14c-.627-.161-1.2-.3-1.77-.457a17.493,17.493,0,0,1-4.769-2.115,1.048,1.048,0,0,1-.533-1.105,1.021,1.021,0,0,1,1.634-.608,18.908,18.908,0,0,0,8.633,2.68,25.3,25.3,0,0,0,5.038-.046,19.747,19.747,0,0,0,5.438-1.271c.968-.4,1.883-.928,2.812-1.417a1.048,1.048,0,0,1,1.4.285,1,1,0,0,1-.277,1.419c-.109.079-.223.15-.338.221A19.537,19.537,0,0,1,65.512,253.572Z" transform="translate(-42.797 -232.237)"/><path class="b" d="M315.172,372.637a4.274,4.274,0,0,1,1.62-3.643,3.354,3.354,0,0,1,4.6.519,4.279,4.279,0,0,1-.066,5.652,3.436,3.436,0,0,1-5.723-1.033A9.049,9.049,0,0,1,315.172,372.637Zm5.309-.327a6.793,6.793,0,0,0-.455-1.233,1.387,1.387,0,0,0-2.417-.049,2.3,2.3,0,0,0-.011,2.53,1.391,1.391,0,0,0,2.436-.046A6.881,6.881,0,0,0,320.481,372.311Z" transform="translate(-296.799 -359.129)"/><path class="b" d="M181.181,372.61a4,4,0,0,1-1.483,3.035,3.337,3.337,0,0,1-4.548-.226,4.261,4.261,0,0,1-.18-5.771,3.449,3.449,0,0,1,5.8.959A4.643,4.643,0,0,1,181.181,372.61Zm-5.2-.124a1.968,1.968,0,0,0,.573,1.466,1.355,1.355,0,0,0,1.977.021,2.248,2.248,0,0,0,.028-3.044,1.369,1.369,0,0,0-2.005,0A2.1,2.1,0,0,0,175.981,372.486Z" transform="translate(-165.086 -359.266)"/></g></g></g></svg>