<svg xmlns="http://www.w3.org/2000/svg" width="15.532" height="15.535" viewBox="0 0 15.532 15.535"><defs><style>.a{fill:#fff;}</style></defs><path class="a" d="M15.941,4.567a5.677,5.677,0,0,0-.361-1.885A3.98,3.98,0,0,0,13.307.41,5.691,5.691,0,0,0,11.422.049C10.591.009,10.327,0,8.218,0s-2.373.009-3.2.046A5.678,5.678,0,0,0,3.131.407a3.79,3.79,0,0,0-1.378.9,3.825,3.825,0,0,0-.9,1.375A5.692,5.692,0,0,0,.5,4.564C.458,5.4.449,5.66.449,7.769s.009,2.373.046,3.2a5.676,5.676,0,0,0,.361,1.885,3.979,3.979,0,0,0,2.273,2.273,5.692,5.692,0,0,0,1.885.361c.828.037,1.093.046,3.2.046s2.373-.009,3.2-.046a5.675,5.675,0,0,0,1.885-.361,3.974,3.974,0,0,0,2.273-2.273,5.7,5.7,0,0,0,.361-1.885c.036-.829.046-1.093.046-3.2s0-2.373-.039-3.2Zm-1.4,6.343a4.258,4.258,0,0,1-.267,1.442A2.577,2.577,0,0,1,12.8,13.827a4.273,4.273,0,0,1-1.442.267c-.819.037-1.065.046-3.138.046S5.9,14.13,5.083,14.094a4.256,4.256,0,0,1-1.442-.267,2.39,2.39,0,0,1-.892-.58,2.415,2.415,0,0,1-.58-.892A4.274,4.274,0,0,1,1.9,10.913c-.037-.819-.046-1.065-.046-3.138s.009-2.322.046-3.138A4.256,4.256,0,0,1,2.169,3.2,2.361,2.361,0,0,1,2.752,2.3a2.412,2.412,0,0,1,.892-.58,4.276,4.276,0,0,1,1.442-.267c.819-.036,1.065-.046,3.138-.046s2.322.009,3.138.046a4.258,4.258,0,0,1,1.442.267,2.389,2.389,0,0,1,.892.58,2.415,2.415,0,0,1,.58.892,4.275,4.275,0,0,1,.267,1.442c.036.819.046,1.065.046,3.138s-.009,2.316-.046,3.135Zm0,0" transform="translate(-0.449 0)"/><path class="a" d="M128.94,124.5a3.991,3.991,0,1,0,3.991,3.991A3.992,3.992,0,0,0,128.94,124.5Zm0,6.579a2.589,2.589,0,1,1,2.589-2.589A2.589,2.589,0,0,1,128.94,131.079Zm0,0" transform="translate(-121.171 -120.722)"/><path class="a" d="M364.313,89.533a.932.932,0,1,1-.932-.932A.932.932,0,0,1,364.313,89.533Zm0,0" transform="translate(-351.464 -85.913)"/></svg>