<svg xmlns="http://www.w3.org/2000/svg" xmlns:xlink="http://www.w3.org/1999/xlink" width="19.43" height="19.43" viewBox="0 0 19.43 19.43"><defs><style>.a{fill:url(#a);}</style><linearGradient id="a" x1="0.076" y1="1" x2="0.81" y2="-0.203" gradientUnits="objectBoundingBox"><stop offset="0" stop-color="#fff500"/><stop offset="1" stop-color="#c06"/></linearGradient></defs><g transform="translate(-0.153 12.932) rotate(-45)"><path class="a" d="M14.161,8.972A4.2,4.2,0,0,1,12.47,8.62a4.3,4.3,0,0,1-1.226-.81l-.007.006L9.252,5.86,7.279,7.8l0,0a4.314,4.314,0,0,1-1.241.824,4.232,4.232,0,0,1-3.382,0,4.313,4.313,0,0,1-1.381-.962A4.489,4.489,0,0,1,.341,6.232a4.634,4.634,0,0,1,0-3.492,4.479,4.479,0,0,1,.931-1.426A4.315,4.315,0,0,1,2.653.353a4.231,4.231,0,0,1,3.382,0,4.309,4.309,0,0,1,1.227.809l.006.006c.041.039.083.08.128.126L9.254,3.115l2.029-1.993,0,0A4.311,4.311,0,0,1,12.47.353a4.231,4.231,0,0,1,3.382,0,4.32,4.32,0,0,1,1.381.962,4.477,4.477,0,0,1,.931,1.426,4.634,4.634,0,0,1,0,3.492,4.482,4.482,0,0,1-.931,1.426,4.318,4.318,0,0,1-1.381.962A4.2,4.2,0,0,1,14.161,8.972Zm0-6.991a2.38,2.38,0,0,0-1.572.6l-.142.139L10.669,4.428l1.651,1.689.02.024.294.288,0,0a2.383,2.383,0,0,0,1.529.561,2.469,2.469,0,0,0,2.426-2.505A2.47,2.47,0,0,0,14.161,1.981Zm-9.817,0A2.469,2.469,0,0,0,1.918,4.486,2.469,2.469,0,0,0,4.344,6.991a2.381,2.381,0,0,0,1.57-.6l.2-.2h0l0,0,1.734-1.7L6.1,2.758A2.369,2.369,0,0,0,4.344,1.981Z" transform="translate(0 0.217)"/></g></svg>