<svg width="554" height="104" viewBox="0 0 554 104" fill="none" xmlns="http://www.w3.org/2000/svg">
<path d="M167.967 66.5266C168.397 71.9033 170.637 76.1705 174.6 79.4136C178.563 82.6566 183.732 84.2782 190.107 84.2782C195.707 84.2782 200.186 83.0834 203.632 80.6937C207.078 78.3041 208.801 74.9757 208.801 70.7938C208.801 67.8067 207.854 65.3317 205.958 63.6249C204.063 61.8326 201.565 60.4671 198.291 59.5283C195.017 58.5895 190.538 57.5654 184.68 56.5413C178.735 55.5171 173.653 54.1516 169.431 52.4447C165.21 50.7379 161.764 48.1775 159.093 44.7638C156.423 41.2646 155.13 36.7414 155.13 31.1087C155.13 25.9027 156.509 21.2941 159.266 17.1975C162.022 13.101 165.813 9.94327 170.81 7.72432C175.72 5.50537 181.406 4.31055 187.781 4.31055C194.328 4.31055 200.186 5.50537 205.355 7.98035C210.524 10.37 214.573 13.6984 217.502 17.9656C220.431 22.2329 222.068 27.0121 222.327 32.4742H207.509C206.992 27.7802 204.925 24.0251 201.393 21.2087C197.774 18.3924 193.294 16.9415 187.781 16.9415C182.44 16.9415 178.218 18.051 175.031 20.3553C171.843 22.6596 170.293 25.9027 170.293 29.9992C170.293 32.9009 171.24 35.2905 173.136 36.9974C175.031 38.7043 177.529 39.9845 180.631 40.9233C183.732 41.7767 188.298 42.7155 194.156 43.7396C200.1 44.7638 205.183 46.1293 209.491 47.9215C213.798 49.6284 217.244 52.1887 220.001 55.6025C222.671 59.0163 224.05 63.4542 224.05 69.0015C224.05 74.3782 222.585 79.1575 219.742 83.4247C216.899 87.692 212.85 90.935 207.681 93.3247C202.512 95.7143 196.654 96.9091 190.107 96.9091C182.87 96.9091 176.495 95.629 170.982 92.9833C165.468 90.423 161.161 86.7532 158.059 82.1446C154.958 77.536 153.407 72.2446 153.321 66.2705L167.967 66.5266ZM239.987 42.0327H228.357V29.7432H239.987V11.1381H254.288V29.6578H270.398V41.9474H254.288V76.5972C254.288 79.1575 254.805 81.0351 255.839 82.1446C256.873 83.254 258.682 83.7661 261.18 83.7661H271.949V96.141H258.337C251.962 96.141 247.31 94.6902 244.381 91.7031C241.452 88.8014 239.987 84.1928 239.987 78.048V42.0327ZM343.194 29.7432V96.141H330.789L329.238 85.9851C326.912 89.3135 323.897 91.8738 320.192 93.9221C316.488 95.885 312.266 96.9091 307.356 96.9091C301.239 96.9091 295.812 95.5436 290.988 92.8126C286.163 90.0816 282.459 86.1558 279.702 81.0351C277.031 75.9144 275.653 69.855 275.653 62.9421C275.653 56.1999 277.031 50.2258 279.788 45.1051C282.545 39.9845 286.336 35.9733 291.074 33.1569C295.898 30.3406 301.326 28.9751 307.27 28.9751C312.266 28.9751 316.574 29.9138 320.192 31.7914C323.897 33.669 326.826 36.2293 329.066 39.4724L330.789 29.7432H343.194ZM323.81 78.9868C327.429 74.8903 329.152 69.6843 329.152 63.1981C329.152 56.6266 327.343 51.2499 323.81 47.1534C320.192 42.9715 315.54 40.9233 309.682 40.9233C303.824 40.9233 299.086 42.9715 295.554 47.0681C291.935 51.1646 290.212 56.4559 290.212 62.9421C290.212 69.5136 292.021 74.8903 295.554 78.9868C299.172 83.0834 303.824 85.1316 309.682 85.1316C315.54 85.1316 320.278 83.0834 323.81 78.9868ZM408.84 90.3376C403.412 94.6902 396.52 96.9091 387.992 96.9091C381.358 96.9091 375.5 95.5436 370.417 92.7273C365.334 89.9109 361.458 85.8997 358.701 80.6937C355.944 75.4877 354.566 69.5136 354.566 62.7714C354.566 56.0292 355.944 50.1404 358.787 45.0198C361.544 39.8991 365.507 35.9733 370.676 33.1569C375.758 30.3406 381.703 28.9751 388.422 28.9751C396.779 28.9751 403.671 31.194 409.012 35.5466C414.353 39.8991 417.627 45.8732 419.005 53.3835H404.446C403.498 49.543 401.603 46.556 398.674 44.337C395.831 42.1181 392.299 40.9233 388.078 40.9233C382.392 40.9233 377.826 42.9715 374.38 46.9827C370.934 51.0792 369.211 56.2852 369.211 62.7714C369.211 69.3429 370.934 74.7196 374.38 78.8161C377.826 82.9127 382.392 84.9609 388.078 84.9609C392.471 84.9609 396.09 83.8515 398.933 81.5472C401.775 79.2429 403.671 76.1705 404.532 72.2446H418.919C417.627 80.011 414.181 85.9851 408.84 90.3376ZM430.291 5.33468H444.419V62.174L475.088 29.7432H491.457L466.473 56.4559L493.094 96.141H476.294L456.394 66.6972L444.505 79.1575V96.141H430.377V5.33468H430.291ZM509.203 74.2076C509.462 77.7067 511.099 80.523 514.114 82.742C517.129 84.9609 521.006 86.0704 525.83 86.0704C530.138 86.0704 533.584 85.3023 536.254 83.6808C538.925 82.0592 540.217 79.9256 540.217 77.2799C540.217 75.061 539.614 73.3541 538.408 72.2446C537.202 71.1352 535.565 70.2817 533.498 69.855C531.43 69.3429 528.242 68.9162 524.021 68.4041C518.163 67.7214 513.339 66.7826 509.548 65.5878C505.758 64.3929 502.656 62.6007 500.416 60.0404C498.09 57.4801 496.97 54.0663 496.97 49.7137C496.97 45.6172 498.09 42.0327 500.416 38.875C502.742 35.7173 505.93 33.2423 509.979 31.5354C514.028 29.8285 518.68 28.9751 523.763 28.9751C532.205 28.9751 539.097 30.8526 544.352 34.5224C549.607 38.2776 552.45 43.4836 552.967 50.2258H539.183C538.839 47.2387 537.288 44.6784 534.617 42.8008C531.947 40.8379 528.501 39.8991 524.366 39.8991C520.231 39.8991 516.957 40.6672 514.372 42.2034C511.874 43.7396 510.582 45.8732 510.582 48.5189C510.582 50.4818 511.185 52.018 512.477 52.9568C513.769 53.9809 515.32 54.6637 517.215 55.0051C519.111 55.4318 522.212 55.8585 526.519 56.3706C532.291 56.968 537.116 57.9068 541.079 59.1869C545.042 60.4671 548.143 62.43 550.469 65.161C552.795 67.8921 554.001 71.5619 554.001 76.2558C554.001 80.4377 552.795 84.0221 550.297 87.1799C547.884 90.3376 544.525 92.7273 540.217 94.4342C535.91 96.141 531.171 96.9945 525.83 96.9945C516.871 96.9945 509.548 94.9462 504.035 90.935C498.521 86.9239 495.592 81.3765 495.42 74.2929H509.203V74.2076Z" fill="black"/>
<path d="M72.309 70.5558L94.4034 104H77.8981L51.9612 64.7053L26.0242 104H9.60627L31.7007 70.6432H0V57.9815H104.01V70.5558H72.309Z" fill="black"/>
<path d="M104.01 33.0076V45.6692V45.7565H0V33.0076H31.0894L9.25695 0H25.7623L51.9612 39.8186L78.2474 0H94.7527L72.9203 33.0076H104.01Z" fill="black"/>
</svg>
