<svg xmlns="http://www.w3.org/2000/svg" width="19.115" height="15.535" viewBox="0 0 19.115 15.535"><defs><style>.a{fill:#fff;}</style></defs><path class="a" d="M6.093,11.711A11.083,11.083,0,0,0,17.252.552q0-.255-.011-.507A7.981,7.981,0,0,0,19.2-1.985a7.824,7.824,0,0,1-2.252.618,3.937,3.937,0,0,0,1.724-2.169,7.866,7.866,0,0,1-2.49.952,3.917,3.917,0,0,0-2.863-1.239A3.922,3.922,0,0,0,9.394.1a3.918,3.918,0,0,0,.1.894,11.135,11.135,0,0,1-8.084-4.1A3.912,3.912,0,0,0,.881-1.135,3.919,3.919,0,0,0,2.626,2.129,3.891,3.891,0,0,1,.85,1.639c0,.016,0,.032,0,.05A3.923,3.923,0,0,0,4,5.534a3.936,3.936,0,0,1-1.034.138A3.9,3.9,0,0,1,2.225,5.6,3.926,3.926,0,0,0,5.888,8.325,7.868,7.868,0,0,1,1.017,10a7.982,7.982,0,0,1-.936-.054,11.1,11.1,0,0,0,6.012,1.762" transform="translate(-0.082 3.824)"/></svg>