<svg xmlns="http://www.w3.org/2000/svg" width="278.395" height="237.49" viewBox="0 0 278.395 237.49"><defs><style>.a{fill:#f7f7f7;}.b{fill:#e7a527;}.c,.j{opacity:0.1;}.d{fill:#f9b807;}.e{fill:#fff;}.f,.k{fill:#263238;}.g{fill:#ff8b7b;}.h{fill:#50b1b5;}.i{opacity:0.2;}.j{fill:#76aeb2;}.k{opacity:0.4;}.l{fill:#ff5652;}</style></defs><g transform="translate(-53.045 -172.045)"><g transform="translate(53.588 176)"><path class="a" d="M13.209-6.955l249.524.843c17.669,0,14.9,5.735,15.038,16.246l-.834,194.824c1.148-.189-276.707-.868-276.938,0L-.055,9.163S-4.46-6.955,13.209-6.955Z" transform="translate(0 3)"/></g><g transform="translate(75.422 216.055)"><g transform="translate(0 20.941)"><g transform="translate(86.269 25.268)"><path class="b" d="M212.542,191.56H200.551v122h11.991a61,61,0,1,0,0-122Z" transform="translate(-200.551 -191.56)"/><path class="c" d="M212.542,191.56H200.551v122h11.991a61,61,0,1,0,0-122Z" transform="translate(-200.551 -191.56)"/></g><path class="b" d="M149.313,196.553l-.242-.486a62.529,62.529,0,0,1,13.313-4.839l.126.528A62.017,62.017,0,0,0,149.313,196.553Z" transform="translate(-90.756 -166.141)"/><path class="b" d="M136.29,206.325l-.3-.451c1.167-.786,2.374-1.542,3.587-2.245l.273.47C138.644,204.8,137.447,205.545,136.29,206.325Z" transform="translate(-84.776 -171.808)"/><circle class="d" cx="61.002" cy="61.002" r="61.002" transform="translate(0 86.269) rotate(-45)"/><path class="c" d="M195.958,229.166A49.686,49.686,0,0,0,125.8,299.283a49.688,49.688,0,1,1,70.158-70.117Z" transform="translate(-72.467 -175.811)"/><path class="c" d="M207.891,284.148q-2.327-2.89-7.264-4.077a11.267,11.267,0,0,0,4.937-3.062,10.25,10.25,0,0,0,2.53-6.967,10.621,10.621,0,0,0-3.546-8.124q-3.546-3.281-10.17-3.281h-2.713v-7.693H186.53v7.693h-6.371v-7.693h-5.134v7.693H163.866v9.28h4.017v27.246h-4.017v9.28h11.159v7.692h5.134v-7.692h6.371v7.692h5.134v-7.692h.652a62.044,62.044,0,0,0,6.342-.625,14.964,14.964,0,0,0,5.374-1.5,12.2,12.2,0,0,0,4.53-4.5,12.49,12.49,0,0,0,1.656-6.4A11.21,11.21,0,0,0,207.891,284.148Zm-25.73-16.232h6.249q3.218,0,4.515,1.125a3.917,3.917,0,0,1,1.3,3.125,4.156,4.156,0,0,1-1.3,3.3q-1.3,1.14-4.608,1.14h-6.156ZM194.534,293.3q-1.5,1.3-5.155,1.3h-7.218v-9.28h7.186q3.718,0,5.2,1.234a4.038,4.038,0,0,1,1.484,3.265A4.371,4.371,0,0,1,194.534,293.3Z" transform="translate(-97.517 -193.43)"/><path class="e" d="M204.732,284.148q-2.328-2.89-7.264-4.077a11.267,11.267,0,0,0,4.937-3.062,10.251,10.251,0,0,0,2.531-6.967,10.622,10.622,0,0,0-3.546-8.124q-3.546-3.281-10.17-3.281h-2.713v-7.693h-5.134v7.693H177v-7.693h-5.134v7.693H160.707v9.28h4.017v27.246h-4.017v9.28h11.159v7.692H177v-7.692h6.371v7.692h5.134v-7.692h.652a62.045,62.045,0,0,0,6.342-.625,14.964,14.964,0,0,0,5.374-1.5,12.2,12.2,0,0,0,4.53-4.5,12.49,12.49,0,0,0,1.656-6.4A11.213,11.213,0,0,0,204.732,284.148ZM179,267.916h6.249q3.218,0,4.515,1.125a3.917,3.917,0,0,1,1.3,3.125,4.156,4.156,0,0,1-1.3,3.3q-1.3,1.14-4.608,1.14H179ZM191.375,293.3q-1.5,1.3-5.155,1.3H179v-9.28h7.186q3.718,0,5.2,1.234a4.038,4.038,0,0,1,1.484,3.265A4.373,4.373,0,0,1,191.375,293.3Z" transform="translate(-96.074 -193.43)"/></g><g transform="translate(127.22)"><ellipse class="f" cx="5.315" cy="5.235" rx="5.315" ry="5.235" transform="translate(12.12 9.329)"/><path class="f" d="M311.768,138.925a2.962,2.962,0,1,1-2.962-2.917A2.94,2.94,0,0,1,311.768,138.925Z" transform="translate(-289.619 -119.965)"/><ellipse class="f" cx="5.315" cy="5.235" rx="5.315" ry="5.235" transform="translate(19.43 8.355)"/><path class="g" d="M322.967,399.447l4.36-.068,1.257-10.111-4.36.068Z" transform="translate(-297.444 -235.701)"/><path class="g" d="M369.2,397.8l3.94-2.3-3.157-9.324-3.94,2.3Z" transform="translate(-317.127 -234.286)"/><path class="f" d="M375.839,401.748l-4.622,2.622a.38.38,0,0,0-.176.442l1.163,3.795a.641.641,0,0,0,.938.359c1.472-.869,2.508-1.572,4.381-2.634,1.153-.654,4.7-2.5,6.287-3.407,1.556-.883.907-2.594.174-2.368-3.284,1.018-5.985,1.385-7.4,1.075A1.057,1.057,0,0,0,375.839,401.748Z" transform="translate(-319.405 -240.85)"/><path class="f" d="M326.161,406.959l-4.759.074a.38.38,0,0,0-.367.3l-.8,3.887a.634.634,0,0,0,.639.765c1.716-.056,4.2-.2,6.354-.229,2.523-.04,4.7.064,7.663.017,1.789-.028,2.257-1.845,1.506-2-3.421-.692-6.206-.729-9.181-2.5A2.013,2.013,0,0,0,326.161,406.959Z" transform="translate(-296.189 -243.785)"/><path class="g" d="M338.309,163.851c.613,1.273,1.265,2.655,1.938,3.966s1.35,2.645,2.056,3.942a66.559,66.559,0,0,0,4.551,7.395l.309.425c.051.071.046.073.042.084a1.379,1.379,0,0,0-.427-.125c-.242-.026-.413.055-.392.073a.646.646,0,0,0,.32-.134,6.929,6.929,0,0,0,1.227-1.078,17.919,17.919,0,0,0,1.285-1.561c.849-1.12,1.646-2.355,2.425-3.614s1.536-2.577,2.26-3.852l3.049,1.188a42.355,42.355,0,0,1-3.5,8.971,23.2,23.2,0,0,1-1.368,2.191,11.269,11.269,0,0,1-1.988,2.191,6.706,6.706,0,0,1-1.658,1.02,4.981,4.981,0,0,1-2.646.344,5.122,5.122,0,0,1-2.458-1.138,7.122,7.122,0,0,1-.755-.742l-.407-.473a42.128,42.128,0,0,1-2.989-3.89c-.931-1.32-1.764-2.677-2.581-4.041s-1.568-2.754-2.289-4.159c-.713-1.422-1.4-2.8-2.046-4.318Z" transform="translate(-301.692 -132.689)"/><g transform="translate(28.66 27.716)"><path class="h" d="M328.858,160.92c-1.176,4,7.1,14.9,7.1,14.9l8.342-5.368a53.185,53.185,0,0,0-5.78-9.8C335.1,156.295,330.147,156.533,328.858,160.92Z" transform="translate(-328.743 -157.504)"/></g><path class="i" d="M335.535,172.37c1.716.733,4.241,4.865,5.555,7.928l-3.54,2.275a66.677,66.677,0,0,1-5.322-8.341C333.347,173.006,334.628,171.985,335.535,172.37Z" transform="translate(-301.676 -136.544)"/><path class="g" d="M371.278,173.153l-1.082-4.692,4.96-.026s1.333,3.525-1.328,5.165Z" transform="translate(-319.027 -134.784)"/><path class="g" d="M370.645,164.309l4.007.808.5,1.563-4.954-.1Z" transform="translate(-319.027 -132.898)"/><path class="g" d="M370.935,159.84l1.018,1.267,0,3.069-1.335.213Z" transform="translate(-319.221 -130.856)"/><path class="i" d="M329.094,389.273l-.647,5.212-4.362.068.647-5.212Z" transform="translate(-297.955 -235.703)"/><path class="i" d="M366.038,388.476l3.942-2.3,1.626,4.807-3.942,2.3Z" transform="translate(-317.127 -234.288)"/><g transform="translate(9.345 27.062)"><path class="h" d="M293.173,158.6c4.695,16.557,3.748,34.131,4.172,37.686,3.41-.248,16.25-1.2,23.25-1.727,2.229-24.909-3.054-37.554-3.054-37.554s-1.495-.291-3.528-.5c-.637-.065-1.325-.123-2.041-.16-.4-.024-.8-.037-1.2-.045a86.435,86.435,0,0,0-9.885.737c-.619.077-1.251.17-1.86.269-.566.1-1.121.2-1.645.3C295,158.086,293.173,158.6,293.173,158.6Z" transform="translate(-293.173 -156.299)"/></g><path class="j" d="M316.62,182.843l-3.666,1.793-4-1.481-.655-6.435,7.665-.312Z" transform="translate(-290.741 -138.427)"/><path class="i" d="M300.064,173.62c.418,1.6-.06,8.911-1.732,10.714-.228-2.34-.532-4.784-.934-7.282Z" transform="translate(-285.759 -137.153)"/><path class="g" d="M307.524,137.032c.86,3.134,1.916,8.914-.151,11.2,1.857,1.589,4.263,3.406,8.049,3.258s2.933-2.7,1.834-3.993c-3.609-.583-3.713-3.221-3.279-5.737Z" transform="translate(-290.317 -120.433)"/><path class="e" d="M304.823,156.3s.984,2.34,8.887,3.913a6.963,6.963,0,0,0-1.908,3.315s-10.315-1.732-10-6.327A12.514,12.514,0,0,1,304.823,156.3Z" transform="translate(-287.768 -129.238)"/><path class="e" d="M327.135,162.436a10.788,10.788,0,0,0-3.4-2.451,3.851,3.851,0,0,0,.815-4.176,16.619,16.619,0,0,1,2.375.1S330.6,158.756,327.135,162.436Z" transform="translate(-297.797 -129.009)"/><path class="k" d="M324.44,168.806c.071.478.336.836.594.8s.409-.456.339-.935-.336-.835-.593-.8S324.37,168.328,324.44,168.806Z" transform="translate(-298.109 -134.525)"/><path class="i" d="M312.449,140.586l3.818,2.8a10.258,10.258,0,0,0-.174,1.777c-1.369-.1-3.341-1.444-3.59-2.851A4.776,4.776,0,0,1,312.449,140.586Z" transform="translate(-292.612 -122.057)"/><ellipse class="f" cx="6.049" cy="5.958" rx="6.049" ry="5.958" transform="translate(15.564 0.774)"/><path class="f" d="M322.541,113.961l-.018,0a.068.068,0,0,1-.047-.084,5.807,5.807,0,0,0-.571-4.481,5.989,5.989,0,0,0-3.612-2.8.068.068,0,0,1,.036-.131,6.123,6.123,0,0,1,3.694,2.86,5.942,5.942,0,0,1,.583,4.586A.067.067,0,0,1,322.541,113.961Z" transform="translate(-295.285 -106.463)"/><ellipse class="f" cx="4.57" cy="4.502" rx="4.57" ry="4.502" transform="translate(22.019 4.913)"/><ellipse class="f" cx="5.315" cy="5.235" rx="5.315" ry="5.235" transform="translate(10.787 4.364)"/><path class="g" d="M306.251,122.57c.585,4.287.709,6.825,3.048,8.873,3.518,3.081,8.687.714,9.394-3.661.637-3.937-.427-10.285-4.769-11.685A5.9,5.9,0,0,0,306.251,122.57Z" transform="translate(-289.778 -110.728)"/><path class="f" d="M301.8,118.233c.445,6.028,13.761-2.4,10.927-5.618s-7.184-.946-8.753.5A6.018,6.018,0,0,0,301.8,118.233Z" transform="translate(-287.763 -108.527)"/><path class="f" d="M319.76,114.38c2.454-.752,6.649,3.624,2.887,3.188S316.885,115.26,319.76,114.38Z" transform="translate(-295.354 -110.041)"/><path class="g" d="M303.019,134.735a4.114,4.114,0,0,0,2.69,1.62c1.427.2,1.954-1.117,1.4-2.366-.5-1.125-1.84-2.586-3.2-2.217A1.847,1.847,0,0,0,303.019,134.735Z" transform="translate(-288.138 -118.002)"/><path class="f" d="M326.156,319.188l-7.38.112s4.264-29.152,3.6-42.718c-.2-4.126.459-9.9-.631-16.085-1.377-7.794-2.04-10.9-3.82-20.754-1.27-7.024-2.4-11.843-2.4-11.843l15.284-1.137S335.8,261.9,335.653,275.2C335.5,289.031,326.156,319.188,326.156,319.188Z" transform="translate(-294.043 -161.439)"/><path class="f" d="M303.57,125.292c2.467.709,3.595,6.665.68,4.247S300.68,124.461,303.57,125.292Z" transform="translate(-287.727 -114.997)"/><path class="i" d="M326.979,288.89a52.32,52.32,0,0,1,.641,9.785c1.271,3.589,2.378,6.989,3.149,10.013,1.352,5.294,3.492,13.32,5.577,21.036,2.264-9.036,4.469-19.478,4.54-26.135Z" transform="translate(-299.277 -189.83)"/><path class="f" d="M315.861,227.893s10.981,27.745,15.144,39.819c4.558,13.222,11.918,48.916,11.918,48.916l-6.944,3.939s-10.82-29.425-15.3-42.3c-5.1-14.671-19.163-37.852-19.82-49.253Z" transform="translate(-287.341 -161.955)"/><path class="b" d="M371.963,388.063l-8.177,4.638-1.385-2.443,9.05-5.343Z" transform="translate(-315.464 -233.712)"/><path class="b" d="M329.375,394.728l-8.794.138-.045-2.841,9.828-.3Z" transform="translate(-296.333 -236.822)"/><path class="f" d="M316.866,129.032c.026.35.233.621.463.6s.394-.315.368-.666-.234-.621-.462-.6S316.84,128.681,316.866,129.032Z" transform="translate(-294.654 -116.472)"/><path class="f" d="M325.787,128.489c.026.35.233.621.462.6s.394-.315.368-.666-.233-.621-.462-.6S325.761,128.138,325.787,128.489Z" transform="translate(-298.731 -116.224)"/><path class="l" d="M323.493,129.543a12.582,12.582,0,0,0,1.9,2.874,2.026,2.026,0,0,1-1.651.439Z" transform="translate(-297.684 -117.01)"/><path class="f" d="M319.6,136.592a2.894,2.894,0,0,1-2.066-1,.1.1,0,0,1,.164-.125,2.793,2.793,0,0,0,2.345.917.1.1,0,1,1,.015.206A3.416,3.416,0,0,1,319.6,136.592Z" transform="translate(-294.95 -119.698)"/><path class="f" d="M315.351,126.315a.2.2,0,0,1-.1-.033.206.206,0,0,1-.061-.285,2.046,2.046,0,0,1,1.613-.975.206.206,0,0,1,0,.413h0a1.637,1.637,0,0,0-1.269.786A.206.206,0,0,1,315.351,126.315Z" transform="translate(-293.875 -114.945)"/><path class="f" d="M327.407,123.91a.208.208,0,0,1-.166-.1,1.639,1.639,0,0,0-1.23-.844.206.206,0,0,1,.022-.412A2.051,2.051,0,0,1,327.6,123.6a.206.206,0,0,1-.191.31Z" transform="translate(-298.745 -113.815)"/><g transform="translate(30.339 159.045)"><path class="b" d="M381.882,401.538a5.149,5.149,0,0,1-1.07.426.1.1,0,0,1-.119-.148c.089-.165.886-1.609,1.428-1.632a.329.329,0,0,1,.3.167.622.622,0,0,1,.084.58A1.323,1.323,0,0,1,381.882,401.538Zm-.881.153c.717-.236,1.2-.54,1.308-.832a.422.422,0,0,0-.063-.4c-.044-.067-.085-.074-.117-.073C381.848,400.4,381.335,401.121,381,401.691Z" transform="translate(-354.157 -399.734)"/><path class="b" d="M380.526,401.577a.106.106,0,0,1-.058.013.1.1,0,0,1-.087-.059,3.107,3.107,0,0,1-.317-1.8.566.566,0,0,1,.317-.333h0a.337.337,0,0,1,.419.074c.32.377.033,1.638-.239,2.073A.108.108,0,0,1,380.526,401.577Zm-.106-1.971a.369.369,0,0,0-.162.2,2.485,2.485,0,0,0,.226,1.442c.222-.517.349-1.419.16-1.642-.017-.021-.058-.068-.182-.016h0A.336.336,0,0,0,380.42,399.605Z" transform="translate(-353.848 -399.355)"/><path class="b" d="M331.906,407.232a.1.1,0,0,1-.016-.189c.2-.105,1.934-1.021,2.469-.734a.329.329,0,0,1,.175.272h0a.58.58,0,0,1-.186.505c-.471.431-1.724.279-2.427.15Zm2.316-.758a4.279,4.279,0,0,0-1.96.609,2.8,2.8,0,0,0,1.946-.15.377.377,0,0,0,.12-.334.122.122,0,0,0-.067-.109A.248.248,0,0,0,334.223,406.474Z" transform="translate(-331.836 -402.507)"/><path class="b" d="M331.907,406.385a.09.09,0,0,1-.027-.013.1.1,0,0,1-.044-.093,2.949,2.949,0,0,1,.651-1.689.754.754,0,0,1,.57-.186h0c.284.024.368.167.389.282.088.492-.94,1.45-1.462,1.695A.1.1,0,0,1,331.907,406.385Zm1.237-1.756a.474.474,0,0,0-.105-.02h0a.545.545,0,0,0-.419.138,2.417,2.417,0,0,0-.554,1.353c.532-.331,1.229-1.083,1.176-1.378C333.238,404.7,333.23,404.657,333.144,404.629Zm-.1-.123h0Z" transform="translate(-331.835 -401.661)"/></g><g transform="translate(0 28.983)"><path class="g" d="M290.107,168.432c-1.225,2.528-2.466,5.133-3.664,7.706-.6,1.289-1.2,2.579-1.766,3.873-.587,1.29-1.131,2.583-1.659,3.876-.252.642-.527,1.29-.756,1.929l-.35.949a1.105,1.105,0,0,0-.1.26,1.379,1.379,0,0,0,.078.813,5.445,5.445,0,0,0,.691,1.262,25.376,25.376,0,0,0,5.823,5.13l-1.313,3a22.311,22.311,0,0,1-2.229-.774,23.17,23.17,0,0,1-2.13-.989,17.1,17.1,0,0,1-4.064-2.877,9.762,9.762,0,0,1-1.776-2.3,7.213,7.213,0,0,1-.927-3.372,6.915,6.915,0,0,1,.239-1.879l.321-1.118c.208-.742.449-1.449.676-2.174.968-2.846,2.052-5.6,3.222-8.31s2.417-5.347,3.795-8Z" transform="translate(-275.964 -162.397)"/><g transform="translate(1.459)"><path class="h" d="M286.537,160.22c-3.977,1.246-7.887,14.73-7.887,14.73l9.2,4.027s2.976-6.516,4.688-11.623C294.4,161.791,291.355,158.711,286.537,160.22Z" transform="translate(-278.65 -159.838)"/></g><path class="g" d="M294.861,217.837l4.405.438-1.793,4.906s-3.959-.879-3.911-3.04Z" transform="translate(-284.006 -186.343)"/><path class="g" d="M306.387,220.835l-2.326,4.039-3.3-1.325,1.793-4.905Z" transform="translate(-287.298 -186.711)"/></g><path class="e" d="M314.982,128.477a3,3,0,1,1,3.005-3.005A3.008,3.008,0,0,1,314.982,128.477Zm0-5.738a2.733,2.733,0,1,0,2.733,2.733A2.736,2.736,0,0,0,314.982,122.739Z" transform="translate(-292.421 -113.777)"/><path class="e" d="M327,128.477A3,3,0,1,1,330,125.471,3.009,3.009,0,0,1,327,128.477Zm0-5.738a2.733,2.733,0,1,0,2.734,2.733A2.737,2.737,0,0,0,327,122.739Z" transform="translate(-297.912 -113.777)"/></g></g></g></svg>