<svg xmlns="http://www.w3.org/2000/svg" width="22.188" height="15.535" viewBox="0 0 22.188 15.535"><defs><style>.a{fill:#fff;}</style></defs><path class="a" d="M21.731-3.651a2.78,2.78,0,0,0-1.956-1.956c-1.736-.475-8.682-.475-8.682-.475s-6.945,0-8.681.457A2.836,2.836,0,0,0,.458-3.651,29.29,29.29,0,0,0,0,1.686,29.182,29.182,0,0,0,.458,7.022,2.78,2.78,0,0,0,2.413,8.978c1.754.475,8.681.475,8.681.475s6.945,0,8.681-.457a2.78,2.78,0,0,0,1.956-1.956A29.3,29.3,0,0,0,22.189,1.7a27.8,27.8,0,0,0-.457-5.355ZM8.883,5.012V-1.641l5.775,3.326Zm0,0" transform="translate(-0.001 6.082)"/></svg>