<svg xmlns="http://www.w3.org/2000/svg" width="137.386" height="54.08" viewBox="0 0 137.386 54.08"><defs><style>.a{fill:#fda800;}.b{fill:#e1302d;}.c{fill:#50b1b5;}</style></defs><g transform="translate(-79.212 -43.227)"><path d="M97.564,97.965a11.27,11.27,0,0,1,3,2.87l-3,2.382-1.137.93a6.511,6.511,0,0,0-2.3-2.067,6.481,6.481,0,0,0-5.609-.258,6.546,6.546,0,0,0-3.464,3.463,6.281,6.281,0,0,0-.517,2.532v15.349H79.212V95.981h5.325v1.984a11.779,11.779,0,0,1,3.05-1.461,11.74,11.74,0,0,1,6.927,0A11.793,11.793,0,0,1,97.564,97.965Z" transform="translate(0 -34.497)"/><path d="M156.182,95.81v27.3h-5.325V95.81Z" transform="translate(-46.851 -34.386)"/><path d="M196.015,110.679a8.955,8.955,0,0,1,1.138,2.249,7.057,7.057,0,0,1,.362,2.559,7.476,7.476,0,0,1-.775,3.154,8.637,8.637,0,0,1-1.913,2.533,8.444,8.444,0,0,1-2.791,1.68,8.833,8.833,0,0,1-3.36.543A9.325,9.325,0,0,1,184.2,122.1a7.921,7.921,0,0,1-3.024-3.153l4.446-3.1a2.9,2.9,0,0,0,1.138,1.577,3.391,3.391,0,0,0,2.068.646,3.443,3.443,0,0,0,2.352-.75,2.448,2.448,0,0,0,1.008-1.99,1.836,1.836,0,0,0-.052-.517v-.1a.415.415,0,0,1-.052-.181.427.427,0,0,0-.052-.181,3.014,3.014,0,0,0-1.344-1.447,2.072,2.072,0,0,0-.465-.207l.052-.052a17.632,17.632,0,0,0-1.6-.8q-.88-.387-1.784-.827t-1.784-.931a9.8,9.8,0,0,1-1.654-1.163v-.052l-.155-.155a7.644,7.644,0,0,1-1.706-2.4,6.462,6.462,0,0,1-.569-2.921,6.9,6.9,0,0,1,.724-2.895,7.613,7.613,0,0,1,1.783-2.326,8.408,8.408,0,0,1,2.611-1.551,8.264,8.264,0,0,1,3.205-.517,9.071,9.071,0,0,1,4.006,1.086,7.554,7.554,0,0,1,2.817,2.636l-4.342,3a2.635,2.635,0,0,0-1.008-.982,3.035,3.035,0,0,0-1.577-.414,3.138,3.138,0,0,0-2.042.569,1.815,1.815,0,0,0-.853,1.5.882.882,0,0,0,.052.362,1.814,1.814,0,0,0,.517.982,3.151,3.151,0,0,0,1.034.672q.981.569,2.249,1.163t2.559,1.319a8.021,8.021,0,0,1,1.861,1.189l.259.258A10.6,10.6,0,0,1,196.015,110.679Z" transform="translate(-66.574 -34.573)"/><path d="M248.944,95.81v27.3h-5.325V95.81Z" transform="translate(-107.511 -34.386)"/><path d="M300.94,75.124a13.427,13.427,0,0,1-1.06,5.325,13.625,13.625,0,0,1-7.263,7.264,13.907,13.907,0,0,1-10.649,0,13.624,13.624,0,0,1-7.264-7.264,13.908,13.908,0,0,1,0-10.65,13.625,13.625,0,0,1,7.264-7.263,13.426,13.426,0,0,1,5.325-1.06,13.186,13.186,0,0,1,4.472.75,14.185,14.185,0,0,1,3.851,2.094V43.227h5.325v31.9Zm-13.622,8.323a8.14,8.14,0,0,0,3.22-.646,8.31,8.31,0,0,0,5.077-7.677v-.052a8.028,8.028,0,0,0-.645-3.205,8.386,8.386,0,0,0-1.778-2.636,8.288,8.288,0,0,0-2.654-1.784,8.351,8.351,0,0,0-6.442,0,8.3,8.3,0,0,0-2.654,1.784,8.685,8.685,0,0,0-1.8,2.662,8.13,8.13,0,0,0,0,6.463,8.664,8.664,0,0,0,1.8,2.662A8.275,8.275,0,0,0,284.1,82.8,8.14,8.14,0,0,0,287.318,83.447Z" transform="translate(-127.145 0)"/><path d="M372.629,95.81v27.3H367.3V95.81Z" transform="translate(-188.392 -34.386)"/><path d="M410.977,95.81a13.424,13.424,0,0,1,5.325,1.06,13.621,13.621,0,0,1,7.264,7.264,13.908,13.908,0,0,1,0,10.649,13.622,13.622,0,0,1-7.264,7.263,13.907,13.907,0,0,1-10.649,0,13.622,13.622,0,0,1-7.263-7.263,13.908,13.908,0,0,1,0-10.649,13.621,13.621,0,0,1,7.263-7.264A13.421,13.421,0,0,1,410.977,95.81ZM411,117.781a8.142,8.142,0,0,0,3.221-.646,8.33,8.33,0,0,0,0-15.354,8.351,8.351,0,0,0-6.442,0,8.307,8.307,0,0,0-2.655,1.784,8.681,8.681,0,0,0-1.8,2.662,8.13,8.13,0,0,0,0,6.462,8.66,8.66,0,0,0,1.8,2.662,8.273,8.273,0,0,0,2.655,1.784A8.14,8.14,0,0,0,411,117.781Z" transform="translate(-208.026 -34.386)"/><circle class="a" cx="2.929" cy="2.929" r="2.929" transform="translate(103.739 52.771)"/><circle class="b" cx="2.929" cy="2.929" r="2.929" transform="translate(135.841 91.448)"/><circle class="c" cx="2.929" cy="2.929" r="2.929" transform="translate(178.615 52.731)"/></g></svg>